<mxfile host="Electron" agent="Mozilla/5.0 (Windows NT 10.0; Win64; x64) AppleWebKit/537.36 (KHTML, like Gecko) draw.io/28.1.2 Chrome/138.0.7204.243 Electron/37.4.0 Safari/537.36" version="28.1.2">
  <diagram name="Page-1" id="qx6ktPzwk3YU3HXfKBoQ">
    <mxGraphModel dx="1041" dy="1052" grid="1" gridSize="10" guides="1" tooltips="1" connect="1" arrows="1" fold="1" page="1" pageScale="1" pageWidth="850" pageHeight="1100" math="0" shadow="0">
      <root>
        <mxCell id="0" />
        <mxCell id="1" parent="0" />
        <mxCell id="iMWmndv7kOzgFIw05Bgr-6" value="" style="edgeStyle=orthogonalEdgeStyle;rounded=0;orthogonalLoop=1;jettySize=auto;html=1;" edge="1" parent="1" source="iMWmndv7kOzgFIw05Bgr-1" target="iMWmndv7kOzgFIw05Bgr-5">
          <mxGeometry relative="1" as="geometry" />
        </mxCell>
        <mxCell id="iMWmndv7kOzgFIw05Bgr-1" value="Start" style="ellipse;whiteSpace=wrap;html=1;" vertex="1" parent="1">
          <mxGeometry x="260" y="20" width="120" height="80" as="geometry" />
        </mxCell>
        <mxCell id="iMWmndv7kOzgFIw05Bgr-2" value="End" style="ellipse;whiteSpace=wrap;html=1;" vertex="1" parent="1">
          <mxGeometry x="150" y="920" width="120" height="80" as="geometry" />
        </mxCell>
        <mxCell id="iMWmndv7kOzgFIw05Bgr-12" value="" style="edgeStyle=orthogonalEdgeStyle;rounded=0;orthogonalLoop=1;jettySize=auto;html=1;entryX=0.5;entryY=0;entryDx=0;entryDy=0;" edge="1" parent="1" source="iMWmndv7kOzgFIw05Bgr-5" target="iMWmndv7kOzgFIw05Bgr-25">
          <mxGeometry relative="1" as="geometry" />
        </mxCell>
        <mxCell id="iMWmndv7kOzgFIw05Bgr-5" value="Get 3 numbers" style="shape=parallelogram;perimeter=parallelogramPerimeter;whiteSpace=wrap;html=1;fixedSize=1;" vertex="1" parent="1">
          <mxGeometry x="260" y="140" width="120" height="60" as="geometry" />
        </mxCell>
        <mxCell id="iMWmndv7kOzgFIw05Bgr-21" style="edgeStyle=orthogonalEdgeStyle;rounded=0;orthogonalLoop=1;jettySize=auto;html=1;entryX=1;entryY=0.5;entryDx=0;entryDy=0;exitX=0.5;exitY=1;exitDx=0;exitDy=0;" edge="1" parent="1" source="iMWmndv7kOzgFIw05Bgr-10" target="iMWmndv7kOzgFIw05Bgr-15">
          <mxGeometry relative="1" as="geometry" />
        </mxCell>
        <mxCell id="iMWmndv7kOzgFIw05Bgr-10" value="Save number 1" style="shape=parallelogram;perimeter=parallelogramPerimeter;whiteSpace=wrap;html=1;fixedSize=1;" vertex="1" parent="1">
          <mxGeometry x="460" y="460" width="120" height="60" as="geometry" />
        </mxCell>
        <mxCell id="iMWmndv7kOzgFIw05Bgr-13" value="Number 1" style="edgeStyle=orthogonalEdgeStyle;rounded=0;orthogonalLoop=1;jettySize=auto;html=1;entryX=0.5;entryY=0;entryDx=0;entryDy=0;" edge="1" parent="1" source="iMWmndv7kOzgFIw05Bgr-11" target="iMWmndv7kOzgFIw05Bgr-10">
          <mxGeometry relative="1" as="geometry" />
        </mxCell>
        <mxCell id="iMWmndv7kOzgFIw05Bgr-19" value="Number 2" style="edgeStyle=orthogonalEdgeStyle;rounded=0;orthogonalLoop=1;jettySize=auto;html=1;entryX=0.5;entryY=0;entryDx=0;entryDy=0;" edge="1" parent="1" source="iMWmndv7kOzgFIw05Bgr-11" target="iMWmndv7kOzgFIw05Bgr-14">
          <mxGeometry relative="1" as="geometry" />
        </mxCell>
        <mxCell id="iMWmndv7kOzgFIw05Bgr-11" value="Is number 1&amp;nbsp;&lt;div&gt;&lt;span style=&quot;background-color: transparent; color: light-dark(rgb(0, 0, 0), rgb(255, 255, 255));&quot;&gt;or number 2 larger&lt;/span&gt;&lt;/div&gt;" style="rhombus;whiteSpace=wrap;html=1;" vertex="1" parent="1">
          <mxGeometry x="245" y="330" width="150" height="150" as="geometry" />
        </mxCell>
        <mxCell id="iMWmndv7kOzgFIw05Bgr-20" style="edgeStyle=orthogonalEdgeStyle;rounded=0;orthogonalLoop=1;jettySize=auto;html=1;entryX=0;entryY=0.5;entryDx=0;entryDy=0;" edge="1" parent="1" source="iMWmndv7kOzgFIw05Bgr-14" target="iMWmndv7kOzgFIw05Bgr-15">
          <mxGeometry relative="1" as="geometry" />
        </mxCell>
        <mxCell id="iMWmndv7kOzgFIw05Bgr-14" value="Save number 2" style="shape=parallelogram;perimeter=parallelogramPerimeter;whiteSpace=wrap;html=1;fixedSize=1;" vertex="1" parent="1">
          <mxGeometry x="70" y="550" width="120" height="60" as="geometry" />
        </mxCell>
        <mxCell id="iMWmndv7kOzgFIw05Bgr-22" value="Number 3" style="edgeStyle=orthogonalEdgeStyle;rounded=0;orthogonalLoop=1;jettySize=auto;html=1;entryX=0.5;entryY=0;entryDx=0;entryDy=0;exitX=1;exitY=1;exitDx=0;exitDy=0;" edge="1" parent="1" source="iMWmndv7kOzgFIw05Bgr-15" target="iMWmndv7kOzgFIw05Bgr-16">
          <mxGeometry relative="1" as="geometry">
            <Array as="points">
              <mxPoint x="450" y="620" />
            </Array>
          </mxGeometry>
        </mxCell>
        <mxCell id="iMWmndv7kOzgFIw05Bgr-23" value="Saved number" style="edgeStyle=orthogonalEdgeStyle;rounded=0;orthogonalLoop=1;jettySize=auto;html=1;entryX=0.5;entryY=0;entryDx=0;entryDy=0;" edge="1" parent="1" source="iMWmndv7kOzgFIw05Bgr-15" target="iMWmndv7kOzgFIw05Bgr-17">
          <mxGeometry relative="1" as="geometry">
            <Array as="points">
              <mxPoint x="210" y="620" />
            </Array>
          </mxGeometry>
        </mxCell>
        <mxCell id="iMWmndv7kOzgFIw05Bgr-15" value="Is number 3 or the save number larger" style="rhombus;whiteSpace=wrap;html=1;" vertex="1" parent="1">
          <mxGeometry x="245" y="500" width="160" height="160" as="geometry" />
        </mxCell>
        <mxCell id="iMWmndv7kOzgFIw05Bgr-18" style="edgeStyle=orthogonalEdgeStyle;rounded=0;orthogonalLoop=1;jettySize=auto;html=1;entryX=0.75;entryY=0;entryDx=0;entryDy=0;" edge="1" parent="1" source="iMWmndv7kOzgFIw05Bgr-16" target="iMWmndv7kOzgFIw05Bgr-17">
          <mxGeometry relative="1" as="geometry" />
        </mxCell>
        <mxCell id="iMWmndv7kOzgFIw05Bgr-16" value="Save number 3" style="shape=parallelogram;perimeter=parallelogramPerimeter;whiteSpace=wrap;html=1;fixedSize=1;" vertex="1" parent="1">
          <mxGeometry x="390" y="760" width="120" height="60" as="geometry" />
        </mxCell>
        <mxCell id="iMWmndv7kOzgFIw05Bgr-24" style="edgeStyle=orthogonalEdgeStyle;rounded=0;orthogonalLoop=1;jettySize=auto;html=1;" edge="1" parent="1" source="iMWmndv7kOzgFIw05Bgr-17" target="iMWmndv7kOzgFIw05Bgr-2">
          <mxGeometry relative="1" as="geometry" />
        </mxCell>
        <mxCell id="iMWmndv7kOzgFIw05Bgr-17" value="Return saved number" style="shape=parallelogram;perimeter=parallelogramPerimeter;whiteSpace=wrap;html=1;fixedSize=1;" vertex="1" parent="1">
          <mxGeometry x="150" y="810" width="120" height="60" as="geometry" />
        </mxCell>
        <mxCell id="iMWmndv7kOzgFIw05Bgr-26" value="" style="edgeStyle=orthogonalEdgeStyle;rounded=0;orthogonalLoop=1;jettySize=auto;html=1;" edge="1" parent="1" source="iMWmndv7kOzgFIw05Bgr-25" target="iMWmndv7kOzgFIw05Bgr-11">
          <mxGeometry relative="1" as="geometry" />
        </mxCell>
        <mxCell id="iMWmndv7kOzgFIw05Bgr-25" value="create Saved&lt;div&gt;Number Varible&lt;/div&gt;" style="rounded=0;whiteSpace=wrap;html=1;" vertex="1" parent="1">
          <mxGeometry x="260" y="240" width="120" height="60" as="geometry" />
        </mxCell>
      </root>
    </mxGraphModel>
  </diagram>
</mxfile>
